<svg xmlns="http://www.w3.org/2000/svg" aria-hidden="true" style="position:absolute;width:0;height:0;overflow:hidden">
  <defs>

  <!-- Logo -->
     <symbol id="icon-logo" viewBox="0 0 41 32">
      <path fill="#ffe550" d="M14.121 6.486c1.014-1.989 3.864-1.989 4.878 0l1.263 2.476a2.74 2.74 0 0 0 2.008 1.458l2.759.439c2.203.351 3.082 3.042 1.508 4.62l-1.986 1.991a2.73 2.73 0 0 0-.764 2.349l.436 2.769c.347 2.202-1.957 3.868-3.947 2.854l-2.472-1.259a2.74 2.74 0 0 0-2.489 0l-2.472 1.259c-1.991 1.014-4.295-.652-3.947-2.854l.436-2.769a2.73 2.73 0 0 0-.764-2.349l-1.986-1.991c-1.574-1.577-.695-4.269 1.508-4.62l2.759-.439a2.74 2.74 0 0 0 2.008-1.458l1.263-2.476z" style="fill:var(--color2, #ffe550)"/>
      <path fill="#2c2c2c" d="m1.118 20.356-.021.005q.005.111-.012.9-.005.787-.003 1.033 0 .236-.01.384l.001.336q-.002.18-.02.296l-.019.206q-.02.195-.085.211-.138.033-.432-.212-.297-.255-.342-.446c-.045-.191-.037-1.061-.021-2.8q.035-2.611-.137-3.434a.42.42 0 0 1 .014-.273q.054-.248.553-.467.51-.221 1.522-.461 1.022-.242 1.623-.272.61-.033.656.159.03.127-.138.223c-.168.096-.212.117-.299.161l-.35.139q-.219.073-.405.141a11 11 0 0 0-.49.161q-.29.102-.539.195-.25.082-.675.238c-.425.156-.466.17-.549.197q.018.03.033.093.118.5.127 2.393.668-.124 1.409-.367.752-.245.922-.286.405-.096.445.074.078.33-.796.772a8.7 8.7 0 0 1-1.96.699zM8.071 18.397a2 2 0 0 0-.278-.652q-.195-.302-.454-.397-.687.376-.999 1.437-.303 1.048-.11 1.866c.193.818.344.853.646.924q.732-.33 1.053-1.349.33-1.032.141-1.828zm-2.779.758a4.1 4.1 0 0 1 .648-1.589q.478-.685 1.107-.834.64-.151 1.193.29.552.43.735 1.206.181.765-.001 1.661a3.8 3.8 0 0 1-.719 1.573q-.526.674-1.261.848-.543.129-1.023-.285c-.48-.414-.54-.669-.661-1.179q-.183-.775-.017-1.69zM12.896 17.255a2 2 0 0 0-.278-.652q-.195-.302-.454-.397-.687.376-.999 1.437-.303 1.048-.11 1.866c.193.818.344.853.646.924q.732-.33 1.053-1.349.33-1.032.141-1.828zm-2.778.758a4.1 4.1 0 0 1 .648-1.589q.479-.686 1.107-.834.64-.151 1.193.29.552.43.735 1.206.181.765-.001 1.661a3.8 3.8 0 0 1-.719 1.573q-.526.674-1.261.848-.543.129-1.023-.285c-.48-.414-.54-.669-.661-1.179q-.183-.775-.017-1.69zM17.933 11.014q.17-.04.491.22.328.248.394.524c.066.276.079.729.106 1.635q.037 1.349.013 2.813-.033 3.284-.278 3.342-.149.034-.373-.102-.216-.151-.248-.289c-.032-.138-.04-.282-.056-.57q-.792 1.31-1.57 1.493-.468.11-.953-.223-.473-.337-.581-.794-.156-.658-.018-1.645.146-.999.641-1.902c.495-.903.747-.962 1.251-1.081q.756-.178 1.268.654.01-2.381-.245-3.7-.075-.319.159-.374zm.062 5.494q-.135-.574-.431-.919-.285-.348-.562-.282-.457.108-.804.785c-.347.677-.384.944-.46 1.478q-.106.788.02 1.319.046.192.211.275c.165.083.23.069.358.039q.416-.099.978-.86a3.56 3.56 0 0 0 .701-1.647l.002-.135zM24.793 15.864q.205.872-.441 1.653a3.04 3.04 0 0 1-1.672 1.013q-1.011.24-1.795-.125-.786-.375-.896-.842-.075-.318.116-.364.17-.04.792.351.234.135.592.219.367.081.73-.004a2.4 2.4 0 0 0 1.23-.695q.495-.521.39-.967-.068-.287-.557-.642a6 6 0 0 0-1.05-.638q-.553-.295-1.045-.661c-.492-.366-.512-.455-.554-.632q-.063-.265-.027-.588c.036-.323.068-.379.131-.491q.307-.555 1.09-1.144.793-.591 1.39-.733.309-.073.57.078c.261.151.278.226.313.375q.026.106-.183.223c-.209.117-.353.188-.641.331a5 5 0 0 0-.744.423q-1.114.757-1.011 1.193.055.234 1.555 1.012a5.3 5.3 0 0 1 1.091.763q.522.448.628.895zM27.238 16.396q.048.202.282.146.405-.096.927-.455.531-.372.594-.387.192-.045.239.156.073.308-.471.863-.533.552-1.055.676-.512.121-.917-.075-.408-.206-.479-.504c-.071-.298-.064-.46-.051-.785q.018-.498.073-1.308.065-.823.084-1.355-.473.235-.643.276c-.17.041-.241-.003-.381-.089q-.203-.143-.24-.302-.06-.255 1.269-.816a7.6 7.6 0 0 0-.178-1.607q-.075-.319.138-.369.181-.043.503.128.32.16.387.447c.067.287.064.542.058 1.052q.594-.197.957-.282.64-.151.704.125.038.16-.289.349-.315.188-1.371.672-.025.892-.11 2.057-.087 1.154-.032 1.387zM32.002 10.826q.48-.114.999.28.518.382.611.775.09.383-.08.849.166.129.193.246.07.297.103 1.053.043.753.064.983.031.228.043.371a3 3 0 0 1 .007.268q.02.275-.129.311-.192.045-.397-.254-.197-.312-.344-.838-.664 1.425-1.473 1.616-.49.116-1.067-.185-.569-.314-.675-.76-.151-.638.097-1.683.245-1.056.817-1.966c.572-.91.792-.962 1.232-1.066zm.932 1.754q-.234-.988-.628-.895-.416.098-.828.824-.416.716-.623 1.55c-.207.834-.173.98-.105 1.27q.043.18.219.262a.6.6 0 0 0 .377.023q.5-.118.971-.937.468-.828.484-1.853-.006-.167.136-.234z" style="fill:var(--color3, #2c2c2c)"/>
      <path fill="#bbf330" d="M30.75 19.975a.92.92 0 0 0-.644.603c-1.907 5.652-7.247 9.717-13.529 9.717a14.22 14.22 0 0 1-9.835-3.933.92.92 0 0 0-.853-.234c-.64.159-.883.932-.409 1.39a15.92 15.92 0 0 0 11.097 4.483c7.079 0 13.084-4.605 15.186-10.986.206-.626-.372-1.198-1.013-1.04M1.865 14.148a.91.91 0 0 0 .668-.725C3.745 6.754 9.577 1.705 16.578 1.705c4.553 0 8.612 2.135 11.227 5.463a.91.91 0 0 0 .93.33c.585-.145.85-.823.481-1.298C26.291 2.428 21.718 0 16.578 0 8.695 0 2.145 5.71.831 13.224c-.104.593.448 1.07 1.034.925zM40.615 5.331c-3.778 7.241-5.437 2.465-10.755 5.271.532-8.406 6.165-3.291 10.755-5.271" style="fill:var(--color4, #bbf330)"/>
    </symbol>

  <!-- Header -->
   <symbol id="icon-burger" viewBox="0 0 32 32">
      <path fill="#7eb101" d="M2.666 8A1.335 1.335 0 0 1 4 6.666h24A1.33 1.33 0 0 1 29.333 8 1.333 1.333 0 0 1 28 9.334H4A1.335 1.335 0 0 1 2.666 8m0 8.043A1.33 1.33 0 0 1 4 14.71h24a1.333 1.333 0 1 1 0 2.666H4a1.333 1.333 0 0 1-1.334-1.333M4 22.752a1.337 1.337 0 0 0-1.334 1.333A1.33 1.33 0 0 0 4 25.418h24a1.333 1.333 0 1 0 0-2.666z" style="fill:var(--color1, #7eb101)"/>
    </symbol>

  <!-- Hero -->
    <symbol id="icon-left" viewBox="0 0 18 32">
      <path d="m.414 16.459 14.861 14.16a1.334 1.334 0 0 0 1.84 0l.016-.016a1.22 1.22 0 0 0 .282-1.373 1.2 1.2 0 0 0-.282-.405L3.136 15.492 17.131 2.164a1.22 1.22 0 0 0 .282-1.373 1.2 1.2 0 0 0-.282-.405L17.115.37a1.336 1.336 0 0 0-1.84 0L.414 14.53a1.32 1.32 0 0 0-.414.965 1.34 1.34 0 0 0 .414.965z"/>
    </symbol>
    <symbol id="icon-rigth" viewBox="0 0 18 32">
      <path d="M17.099 14.528 2.238.368a1.334 1.334 0 0 0-1.84 0L.382.384A1.22 1.22 0 0 0 .1 1.757c.065.153.162.291.282.405l13.995 13.333L.382 28.823A1.22 1.22 0 0 0 .1 30.196c.066.153.162.291.282.405l.016.016a1.334 1.334 0 0 0 1.84 0l14.861-14.16a1.32 1.32 0 0 0 .414-.965 1.34 1.34 0 0 0-.414-.965z"/>
    </symbol>

  <!-- Benefits -->
    <symbol id="icon-arrow-benefits" viewBox="0 0 32 32">
      <path d="M21.074 15.328a.9.9 0 0 1 0 1.277l-9.206 9.206a.9.9 0 0 1-1.277 0l-.426-.426a.9.9 0 0 1 0-1.277l8.142-8.142-8.142-8.142a.9.9 0 0 1 0-1.277l.426-.426a.9.9 0 0 1 1.277 0z"/>
    </symbol>
    <symbol id="icon-order" viewBox="0 0 32 32">
      <path fill="#fff" d="M32 16c0 8.837-7.163 16-16 16S0 24.837 0 16 7.163 0 16 0s16 7.163 16 16" style="fill:var(--color1, #fff)"/>
      <path fill="#7eb101" d="M15.667 6.222q2.022 0 3.456 1.411c1.434 1.411 1.433 2.085 1.433 3.433q0 1.155-.5 2.178c-.5 1.023-.804 1.259-1.411 1.733h-.756v-1.111q.645-.512.989-1.244c.344-.732.344-1.007.344-1.556q0-1.466-1.044-2.489c-1.044-1.023-1.533-1.022-2.511-1.022q-1.467 0-2.511 1.022c-1.044 1.022-1.044 1.511-1.044 2.489q0 .822.344 1.556c.344.734.559.904.989 1.244v1.6q-1.244-.645-1.956-1.822c-.712-1.177-.711-1.644-.711-2.578q0-2.023 1.433-3.433c1.433-1.41 2.107-1.411 3.456-1.411m-.845 18.667q-.378 0-.711-.144c-.333-.144-.415-.226-.578-.389l-4.578-4.578 1.244-1.289q.311-.311.7-.478c.389-.167.53-.13.811-.056l1.733.4v-7.244q0-.933.644-1.578c.644-.645.956-.644 1.578-.644q.933 0 1.578.644c.645.644.644.956.644 1.578v3.822h.578q.111 0 .2.044c.089.044.126.059.2.089l3.289 1.6q.534.244.789.789c.255.545.219.737.144 1.122l-.8 4.844q-.11.644-.622 1.056c-.512.412-.726.411-1.156.411H14.82zm-.177-1.333h6.244l.956-5.533-4.067-2.022h-1.222v-4.889q0-.4-.244-.644c-.244-.244-.378-.244-.644-.244s-.482.081-.644.244q-.244.245-.244.644v8.867l-3.422-.733-.511.511 3.8 3.8zm6.244 0" style="fill:var(--color2, #7eb101)"/>
    </symbol>
    <symbol id="icon-deliv" viewBox="0 0 32 32">
      <path fill="#fff" d="M32 16c0 8.837-7.163 16-16 16S0 24.837 0 16 7.163 0 16 0s16 7.163 16 16" style="fill:var(--color1, #fff)"/>
      <path fill="#7eb101" d="m9.489 14.422 2.356 1q.4-.8.856-1.578a15 15 0 0 1 .967-1.489l-1.756-.356zm3.422 1.8 2.956 2.956q1.266-.578 2.378-1.311c1.112-.733 1.341-.963 1.8-1.422q1.8-1.8 2.644-3.689c.844-1.889.867-2.682.911-4.267q-2.377.066-4.267.911c-1.89.845-2.489 1.444-3.689 2.644q-.688.688-1.422 1.8c-.734 1.112-.926 1.533-1.311 2.378M18 14.089q-.444-.444-.444-1.1c0-.656.148-.804.444-1.1q.444-.444 1.1-.444c.656 0 .804.148 1.1.444q.444.444.444 1.1c0 .656-.148.804-.444 1.1q-.444.444-1.1.444c-.656 0-.804-.148-1.1-.444m-.333 8.511 2.422-2.422-.356-1.756q-.71.511-1.489.967a21 21 0 0 1-1.578.856l1 2.356zm7.244-15.422q.2 3.023-.756 5.511c-.956 2.488-1.689 3.222-3.156 4.689l-.089.089.489 2.444q.066.333-.033.644c-.099.311-.181.393-.344.556l-3.8 3.822-1.889-4.4-3.778-3.778-4.4-1.889 3.822-3.8q.244-.245.556-.344c.312-.099.422-.078.644-.033l2.444.489q.023-.023.044-.033a.14.14 0 0 0 .044-.033q2.2-2.2 4.689-3.167c2.489-.967 3.496-.9 5.511-.767zM8.644 19.444q.777-.778 1.9-.789c1.123-.011 1.381.248 1.9.767q.777.778.767 1.9c-.01 1.122-.27 1.381-.789 1.9q-.577.578-1.789.956c-1.212.378-2.019.489-3.633.711q.333-2.423.7-3.644c.367-1.221.559-1.415.944-1.8zm.934.956q-.311.333-.556 1.044c-.245.711-.304 1.081-.422 1.822q1.111-.177 1.822-.422c.711-.245.822-.348 1.044-.556q.422-.378.433-.944c.011-.566-.122-.707-.389-.989q-.422-.4-.989-.389c-.567.011-.693.152-.944.433z" style="fill:var(--color2, #7eb101)"/>
    </symbol>
  
  <!-- Testimonials -->
    <symbol id="icon-star-filled" viewBox="0 0 32 32">
      <path d="M14.761 4.816c.458-1.089 2.019-1.089 2.478 0l2.705 6.425c.193.459.63.772 1.132.812l7.021.556c1.19.094 1.672 1.561.766 2.328l-5.349 4.527a1.32 1.32 0 0 0-.432 1.314l1.634 6.769c.277 1.147-.986 2.053-2.004 1.439l-6.011-3.627a1.36 1.36 0 0 0-1.399 0l-6.011 3.627c-1.018.615-2.281-.292-2.004-1.439l1.634-6.769a1.32 1.32 0 0 0-.432-1.314l-5.35-4.527c-.906-.767-.424-2.234.766-2.328l7.021-.556c.502-.04.938-.353 1.132-.812l2.705-6.425z"/>
    </symbol>

     <symbol id="icon-star-outline" viewBox="0 0 32 32">
      <path stroke-width="1.333" d="M15.375 5.076c.229-.545 1.021-.545 1.25 0l2.704 6.424a2.01 2.01 0 0 0 1.694 1.219l7.021.556c.61.048.828.78.388 1.154l-5.35 4.527a1.99 1.99 0 0 0-.65 1.98l1.635 6.768c.133.549-.482 1.031-1.013.711h-.001l-6.009-3.626a2.03 2.03 0 0 0-2.089 0l-6.01 3.626c-.531.32-1.146-.162-1.013-.711l1.635-6.768a1.99 1.99 0 0 0-.65-1.98l-5.35-4.527a.656.656 0 0 1 .388-1.154l7.021-.556A2.01 2.01 0 0 0 12.67 11.5l2.704-6.424z"/>
    </symbol>

  <!-- Location -->
     <symbol id="icon-email" viewBox="0 0 32 32">
      <path
        d="M26.6665 5.3335H5.33317C3.8625 5.3335 2.6665 6.5295 2.6665 8.00016V24.0002C2.6665 25.4708 3.8625 26.6668 5.33317 26.6668H26.6665C28.1372 26.6668 29.3332 25.4708 29.3332 24.0002V8.00016C29.3332 6.5295 28.1372 5.3335 26.6665 5.3335ZM26.6665 8.00016V8.6815L15.9998 16.9788L5.33317 8.68283V8.00016H26.6665ZM5.33317 24.0002V12.0588L15.1812 19.7188C15.4146 19.9022 15.7029 20.0019 15.9998 20.0019C16.2967 20.0019 16.585 19.9022 16.8185 19.7188L26.6665 12.0588L26.6692 24.0002H5.33317Z" />
    </symbol>
    
    <symbol id="icon-phone" viewBox="0 0 32 32">
      <path d="M23.61 16.391a1.34 1.34 0 0 0-.942-.391 1.33 1.33 0 0 0-.942.391l-2.125 2.125c-.985-.293-2.824-.96-3.989-2.125s-1.832-3.004-2.125-3.989l2.125-2.125a1.34 1.34 0 0 0 .391-.942 1.33 1.33 0 0 0-.391-.942L10.279 3.06a1.34 1.34 0 0 0-.942-.391 1.33 1.33 0 0 0-.942.391L4.779 6.676a2.66 2.66 0 0 0-.781 1.913c.031 1.899.533 8.493 5.731 13.691s11.792 5.699 13.692 5.731h.037c.704 0 1.369-.277 1.873-.781l3.616-3.616a1.34 1.34 0 0 0 .391-.942 1.33 1.33 0 0 0-.391-.942l-5.333-5.335zm-.17 8.949c-1.664-.028-7.357-.475-11.831-4.949C7.121 15.903 6.686 10.19 6.66 8.559l2.673-2.673 3.448 3.448-1.724 1.724a1.33 1.33 0 0 0-.362 1.216c.032.153.815 3.789 3.028 6.003s5.849 2.996 6.003 3.028a1.32 1.32 0 0 0 1.216-.361l1.725-1.724 3.448 3.448-2.675 2.673z"/>
    </symbol>

    <symbol id="icon-map" viewBox="0 0 32 32">
      <path d="M16 18.667c2.941 0 5.333-2.392 5.333-5.333S18.941 8.001 16 8.001s-5.333 2.392-5.333 5.333 2.392 5.333 5.333 5.333m0-8c1.471 0 2.667 1.196 2.667 2.667S17.471 16.001 16 16.001s-2.667-1.196-2.667-2.667 1.196-2.667 2.667-2.667"/>
      <path d="M15.227 29.085a1.33 1.33 0 0 0 1.546 0c.405-.287 9.932-7.165 9.893-15.752 0-5.881-4.785-10.667-10.667-10.667S5.332 7.451 5.332 13.326c-.039 8.593 9.488 15.472 9.893 15.759zM16 5.333c4.412 0 8 3.588 8 8.007.028 5.917-5.851 11.231-8 12.973-2.148-1.744-8.028-7.059-8-12.98 0-4.412 3.588-8 8-8"/>
    </symbol>

     <symbol id="icon-right" viewBox="0 0 32 32">
      <path d="m12.943 22.599 7.609-7.609-7.609-7.609-1.885 1.885 5.724 5.724-5.724 5.724z"/>
    </symbol>

  
  <!-- Footer -->
    <symbol id="icon-facebook" viewBox="0 0 32 32">
      <path d="M29.333 16.405C29.333 8.996 23.364 2.99 16 2.99S2.667 8.996 2.667 16.405c0 6.696 4.876 12.245 11.25 13.252v-9.374h-3.385v-3.878h3.385V13.45c0-3.362 1.991-5.219 5.036-5.219 1.459 0 2.985.262 2.985.262v3.301h-1.681c-1.656 0-2.173 1.034-2.173 2.095v2.516h3.698l-.591 3.878h-3.107v9.374c6.374-1.006 11.25-6.556 11.25-13.252z"/>
    </symbol>

    <symbol id="icon-instagram" viewBox="0 0 32 32">
      <path d="M15.998 6.161c3.206 0 3.585.014 4.846.071 1.172.052 1.804.248 2.226.412.558.216.961.478 1.378.895.422.422.679.82.9 1.378.164.422.361 1.059.412 2.226.056 1.266.071 1.645.071 4.847s-.014 3.585-.071 4.847c-.052 1.172-.248 1.804-.412 2.227a3.7 3.7 0 0 1-.895 1.377c-.422.422-.82.679-1.378.9-.422.164-1.06.361-2.226.412-1.266.056-1.645.071-4.847.071s-3.585-.014-4.847-.071c-1.172-.052-1.804-.248-2.226-.412a3.7 3.7 0 0 1-1.378-.895 3.8 3.8 0 0 1-.9-1.378c-.164-.422-.361-1.06-.412-2.226-.056-1.266-.071-1.645-.071-4.847s.014-3.585.071-4.847c.052-1.172.248-1.804.412-2.226.216-.558.478-.961.895-1.378.422-.422.82-.679 1.378-.9.422-.164 1.059-.361 2.226-.412 1.261-.056 1.641-.071 4.847-.071zm0-2.16c-3.258 0-3.665.014-4.945.071-1.275.056-2.151.262-2.91.558a5.85 5.85 0 0 0-2.127 1.387A5.9 5.9 0 0 0 4.629 8.14c-.295.764-.502 1.636-.558 2.91C4.015 12.335 4 12.742 4 15.999s.014 3.665.071 4.945c.056 1.275.262 2.151.558 2.91a5.9 5.9 0 0 0 1.387 2.127 5.9 5.9 0 0 0 2.123 1.383c.764.295 1.636.502 2.91.558 1.279.056 1.687.071 4.945.071s3.666-.014 4.945-.071c1.275-.056 2.151-.262 2.91-.558.787-.305 1.458-.717 2.123-1.383s1.078-1.336 1.383-2.123c.295-.764.502-1.635.558-2.91.056-1.279.071-1.687.071-4.945s-.014-3.665-.071-4.945c-.056-1.275-.262-2.151-.558-2.91a5.6 5.6 0 0 0-1.373-2.133 5.9 5.9 0 0 0-2.123-1.383c-.764-.295-1.635-.502-2.91-.558-1.284-.061-1.692-.075-4.949-.075L15.999 4z"/>
      <path d="M15.998 9.836a6.164 6.164 0 1 0 6.163 6.163 6.164 6.164 0 0 0-6.163-6.163m0 10.161a3.998 3.998 0 1 1 0-7.996 3.998 3.998 0 0 1 0 7.996M23.843 9.592a1.439 1.439 0 1 1-2.877 0 1.439 1.439 0 0 1 2.877 0"/>
    </symbol>

    <symbol id="icon-X" viewBox="0 0 32 32">
      <path d="M22.901 5.657h3.68l-8.04 9.037L28 26.991h-7.406l-5.801-7.458-6.637 7.458H4.474l8.6-9.666L4 5.657h7.594l5.243 6.817zM21.61 24.824h2.039L10.486 7.709H8.298z"/>
    </symbol>
   
  <!-- Mobile menu -->
    <symbol id="icon-close" viewBox="0 0 32 32">
      <path d="M19.075 15.782 30.722 4.144A2.393 2.393 0 0 0 28.995.193a2.4 2.4 0 0 0-1.651.574L15.697 12.285 3.978.575A2.4 2.4 0 0 0 .725.701a2.39 2.39 0 0 0-.126 3.251l11.695 11.829L.839 27.084a2.38 2.38 0 0 0-.835 1.727 2.395 2.395 0 0 0 4.215 1.65L15.65 19.039 27.009 30.39a2.4 2.4 0 0 0 3.253-.126 2.39 2.39 0 0 0 .125-3.251L19.076 15.782z"/>
    </symbol>
  </defs>
</svg>
